<svg id="圖層_1" data-name="圖層 1" xmlns="http://www.w3.org/2000/svg" viewBox="0 0 108.18 20.67"><defs><style>.cls-1{fill:#423a36;}</style></defs><path class="cls-1" d="M36.74,14.23V13.07c0-3.78,2.18-6.27,6.62-6.27,4.19,0,6,2.52,6,6.21v2.12H40.82c.08,1.82.9,2.63,3.17,2.63A11.88,11.88,0,0,0,48.32,17l.74,2.76a13.29,13.29,0,0,1-5.24,1C38.66,20.69,36.74,18.14,36.74,14.23Zm4.08-1.72h4.92v-.34c0-1.46-.59-2.6-2.38-2.6s-2.54,1.15-2.54,2.93Zm14.12,5.87v2H51.09V.4L55.17,0V8.93A4.08,4.08,0,0,1,59,6.8c3.73,0,5.55,2.8,5.54,6.52v.84c0,3.72-1.8,6.51-5.54,6.51A4.19,4.19,0,0,1,54.94,18.38ZM55.17,13v1.4c0,1.91.9,3.08,2.57,3.08,1.95,0,2.69-1.4,2.69-3.28v-1c0-1.88-.74-3.28-2.69-3.28C56.07,10,55.17,11.13,55.17,13ZM10.48,14.16v-.85c0-3.72,1.8-6.51,5.54-6.51A4,4,0,0,1,19.9,9.13V7.08h3.9V20.39H19.9v-2A4,4,0,0,1,16,20.67C12.27,20.67,10.48,17.87,10.48,14.16Zm4.1-.9v1c0,2,.73,3.3,2.63,3.3,1.67,0,2.51-1.2,2.51-3.1V13.07c0-1.9-.84-3.1-2.51-3.1-1.89,0-2.62,1.31-2.62,3.29Zm66.07.81V13.4c0-3.83,2.2-6.6,6.7-6.6s6.71,2.77,6.7,6.6v.67c0,3.83-2.21,6.6-6.7,6.6s-6.7-2.77-6.7-6.6Zm4.07-1v1.23c0,1.76.74,3.16,2.63,3.16S90,16.1,90,14.35V13.12c0-1.76-.74-3.16-2.62-3.16s-2.62,1.41-2.62,3.16Zm-18.85,1V13.4c0-3.83,2.2-6.6,6.7-6.6s6.71,2.77,6.7,6.6v.67c0,3.83-2.21,6.6-6.7,6.6s-6.7-2.77-6.7-6.6Zm4.08-1v1.23c0,1.76.74,3.16,2.62,3.16s2.62-1.41,2.62-3.16V13.12c0-1.76-.74-3.16-2.62-3.16S70,11.37,70,13.12ZM25.33,14v-.61c0-4.08,2.18-6.63,7-6.63a7.51,7.51,0,0,1,3.91.9l-.91,2.85a6.35,6.35,0,0,0-2.71-.61c-2.21,0-3.17,1.25-3.18,3.41v.77c0,2.16,1,3.42,3.18,3.42a6.51,6.51,0,0,0,2.71-.62l.91,2.85a7.51,7.51,0,0,1-3.91.9c-4.78,0-7-2.55-7-6.63Zm78.52,6.35-4.19-6.52v6.52H95.58V.4L99.66,0V13.43l4-6.34H108l-4.22,6.57,4.39,6.73Zm-101.1,0v-10H0V7.08H2.75v-2C2.75,1.78,4.1,0,7.9,0a18.72,18.72,0,0,1,2.37.13v3.1H8.46c-1.27,0-1.64.56-1.64,1.79v2h3.4l-.34,3.3H6.83v10Z" transform="translate(0 -0.02)"/></svg>