<svg id="圖層_1" data-name="圖層 1" xmlns="http://www.w3.org/2000/svg" viewBox="0 0 94.22 31.01"><defs><style>.cls-1{fill:#423a36;}</style></defs><path class="cls-1" d="M58.93,26.45l3-1.23A4.3,4.3,0,0,0,65.8,28c2.55,0,4.13-1.58,4.13-4.55V22.31h-.12a5.26,5.26,0,0,1-4.08,1.76,7.76,7.76,0,0,1,0-15.5,5.37,5.37,0,0,1,4.08,1.73h.12V9h3.23V23c0,5.72-3.37,8.06-7.36,8.06A7.4,7.4,0,0,1,58.93,26.45Zm2.79-10.1A4.45,4.45,0,0,0,66,21H66c2.32,0,4.14-2,4.14-4.67S68.36,11.62,66,11.62a4.49,4.49,0,0,0-4.32,4.64v.09Zm-20.18,0a7.64,7.64,0,0,1,7.53-7.75h.25a7.64,7.64,0,0,1,7.78,7.49v.26a7.66,7.66,0,0,1-7.56,7.75h-.22a7.66,7.66,0,0,1-7.78-7.53v-.22Zm3.41,0A4.48,4.48,0,0,0,49.2,21h.12a4.48,4.48,0,0,0,4.37-4.59v-.11a4.46,4.46,0,0,0-4.22-4.69h-.15a4.47,4.47,0,0,0-4.38,4.55s0,.1,0,.15Zm-20.18,0a7.64,7.64,0,0,1,7.52-7.75h.25a7.64,7.64,0,0,1,7.78,7.5v.25a7.65,7.65,0,0,1-7.56,7.75h-.22a7.66,7.66,0,0,1-7.77-7.54v-.21Zm3.4,0A4.48,4.48,0,0,0,32.43,21h.11a4.48,4.48,0,0,0,4.38-4.59.45.45,0,0,0,0-.11,4.46,4.46,0,0,0-4.22-4.69h-.15a4.47,4.47,0,0,0-4.37,4.56.66.66,0,0,0,0,.14Zm51.75,0c0-4.61,3.32-7.75,7.31-7.75a7.2,7.2,0,0,1,6.63,4.93l.36.88L83.86,18.67A3.94,3.94,0,0,0,87.61,21a4.45,4.45,0,0,0,3.82-2.14l2.64,1.76a7.73,7.73,0,0,1-6.46,3.43,7.57,7.57,0,0,1-7.68-7.47,2.61,2.61,0,0,1,0-.28Zm3.38-.23,6.92-2.88a3,3,0,0,0-2.87-1.64,4.25,4.25,0,0,0-4,4.44v.07ZM0,12A12.2,12.2,0,0,1,12.21,0a11.45,11.45,0,0,1,8.24,3.32L18.13,5.64A8.35,8.35,0,0,0,12.2,3.29a8.64,8.64,0,0,0-8.63,8.63V12a8.63,8.63,0,0,0,8.52,8.74h.11a8,8,0,0,0,6.08-2.41,6.8,6.8,0,0,0,1.78-4.07H12.2V11H23.28a11,11,0,0,1,.17,2,10.85,10.85,0,0,1-2.85,7.69,11,11,0,0,1-8.39,3.38A12.2,12.2,0,0,1,0,12ZM75.17,23.6V.89h3.32v22.7ZM73.17,9Z" transform="translate(0 0)"/></svg>