<svg id="圖層_1" data-name="圖層 1" xmlns="http://www.w3.org/2000/svg" viewBox="0 0 32 32"><defs><style>.cls-1{fill:#432818;}</style></defs><path class="cls-1" d="M25.07,32H6.93A6.91,6.91,0,0,1,0,25.1V6.93A6.92,6.92,0,0,1,6.91,0H25.07A6.91,6.91,0,0,1,32,6.9V25.07A6.91,6.91,0,0,1,25.1,32ZM16,5.6a10.4,10.4,0,0,0,0,20.8,10.1,10.1,0,0,0,3.23-.51l.61-.21a.43.43,0,0,0,.27-.53l-.59-1.84a.42.42,0,0,0-.39-.29A.32.32,0,0,0,19,23l-.62.21a7.31,7.31,0,0,1-2.37.38A7.63,7.63,0,1,1,23.63,16a8.12,8.12,0,0,1-.48,2.67c-.24.66-.78,1.2-1.2,1.2a1.07,1.07,0,0,1-1.07-1.07V11.47a.42.42,0,0,0-.42-.43H18.53a.44.44,0,0,0-.42.4v.16L18,11.52a5.07,5.07,0,1,0,.32,8.72l.11,0,.05.1A3.88,3.88,0,0,0,19.86,22a3.7,3.7,0,0,0,2.11.63,4.26,4.26,0,0,0,3.82-3.06A11.27,11.27,0,0,0,26.4,16,10.42,10.42,0,0,0,16,5.6Zm-.43,12.91A2.51,2.51,0,1,1,18.08,16h0A2.52,2.52,0,0,1,15.57,18.51Z" transform="translate(0 0)"/></svg>