<svg id="圖層_1" data-name="圖層 1" xmlns="http://www.w3.org/2000/svg" viewBox="0 0 96.51 22.4"><defs><style>.cls-1{fill:#423a36;}</style></defs><path class="cls-1" d="M90.52,21a1.36,1.36,0,0,1,1.25-1.46h.14a1.39,1.39,0,0,1,1.54,1.24.61.61,0,0,1,0,.14,1.29,1.29,0,0,1-1.15,1.43h-.19C91.24,22.4,90.52,21.94,90.52,21ZM10.26,22.33a9.62,9.62,0,0,0-1.41-.14,11.19,11.19,0,0,0-1.42.14h0l.17-9.49C6.29,10.57,2.42,3.64,0,0H0A5.44,5.44,0,0,0,3,0H3c1.53,2.72,3.9,6.53,5.89,9.84,2-3.23,5.05-8.27,5.89-9.84h0a5.93,5.93,0,0,0,3,0h0c-1.12,1.52-5.17,8.53-7.62,12.84h0ZM68,11.16c0-6.57,4.76-10.1,11-10.1C86,1.06,90,5.2,90,11.26c0,6.42-4.35,10.08-11,10.08C71.16,21.34,68,16.57,68,11.16Zm3,0c0,6.68,3.84,9.15,8,9.15,3.94,0,8.11-2.21,8.11-9,0-6.26-3.44-9.1-8.12-9.1-3.79,0-8,2.05-8,9Zm-23.07.1c0-5.14,3.28-9.1,9.53-9.1,5.8,0,9.55,3.44,9.55,9.16,0,5.13-3.14,9-9.56,9-5.94,0-9.52-3.43-9.52-9Zm2.93,0c0,5,2.45,8,6.62,8,3.82,0,6.62-2.6,6.62-8s-2.81-8-6.63-8h-.16c-3.43.07-6.45,2.36-6.45,8.06ZM27.71,20h0c-.68-1.74-1.37-3.46-2.05-5.19-2.42-.08-4.83-.07-7.25,0h0c-.71,1.8-1.42,3.6-2.05,5.18h0a5.93,5.93,0,0,0-2.9,0h0C15.9,15,18.64,8.3,21,2.35h0a2.9,2.9,0,0,0,2,0h0C25.32,8.07,28.88,16.72,30.65,20h0a6.09,6.09,0,0,0-2.94,0Zm-2.54-6.42C24.07,10.87,23,8.13,22,5.41c-.65,1.85-1.86,5-3.13,8.21q3.13.11,6.27,0ZM13.44,20h0Zm30.64,0h0c.15-2.75.22-5.49.23-8.23-3.29,0-6.59,0-9.88,0h0q0,4.11.23,8.23h0a6.09,6.09,0,0,0-2.94,0c.23-5.89.25-11.78,0-17.68a6.09,6.09,0,0,0,2.94,0h0q-.21,4.13-.23,8.25h0q4.94.12,9.88,0c0-2.75-.08-5.5-.23-8.25a6.13,6.13,0,0,0,3,0c-.26,5.9-.24,11.79,0,17.68a6.22,6.22,0,0,0-2.94,0Zm48-2.6h0C92.71,12.36,93.15,7,93.57,1.71A1.35,1.35,0,0,1,94.77.24H95l.3,0h0a1.32,1.32,0,0,1,1.23,1.36,4.23,4.23,0,0,1-.17.93c-.5,2.19-2.44,9.91-3.25,15.07h0a2,2,0,0,0-1-.19Z" transform="translate(0)"/></svg>