<svg id="圖層_1" data-name="圖層 1" xmlns="http://www.w3.org/2000/svg" viewBox="0 0 189.36 45.46"><defs><style>.cls-1{fill:#432818;}</style></defs><path class="cls-1" d="M8.07,32.3C8,39,7.78,42.24,7.78,43.48s.29,1.64,2.11,1.64c2.79,0,4.08-.72,4.08-2.06s-.1-4.18-.1-15.75V16.56c1.2-.48,1.49-.82,1.49-1.25s-.48-.91-3.22-2A55.59,55.59,0,0,0,17,5.47c1.73-.53,2.16-.91,2.16-1.58S18.72,2.83,11.72.1a25.8,25.8,0,0,1-.92,3.45C8,11.66,3.89,20.06.05,24.38c-.19.2.19.53.43.39a40,40,0,0,0,7.73-6.72Zm20.06-6c0-3.46-3.26-6.86-10-7.82-.29-.05-.48.38-.24.52,2.25,1.54,3.17,3.94,3.31,7.73.1,2.45,1.3,3.89,3.17,3.89S28.13,29.09,28.13,26.3Zm9.7-13.25V4.17c1.68-.72,2-1.1,2-1.63,0-.86-1.3-1.3-8.4-2.11.34,2.73.43,4.7.43,12.62H20.93c-1.3,0-3.41-.1-5.66-.33l.43,1.63C18,14.11,20,14,20.93,14H31.82V36.1c0,2-.57,2.5-2.2,2.64-1,.1-2.6.19-5.81.19-.29,0-.29.43,0,.53,3.89,1.2,5,2.93,5.52,4.56.24.91.72,1.1,1.68,1.1a12,12,0,0,0,3.65-.67c2-.67,3.45-2.64,3.45-6,0-1.83-.29-11.19-.29-19.49V14h8a.44.44,0,0,0,.48-.38.17.17,0,0,0,0-.1c0-.39-.1-.58-1.58-2.07C42.24,9,42.05,8.93,41.57,8.93s-.67.1-3.41,4.13Zm20.64-4.7v5.52H57c-1,0-2.73,0-5.76-.33l.44,1.63A52.58,52.58,0,0,1,57,14.83H71.86c.62,0,.82-.19.82-.53s-.1-.52-1.44-1.87c-1.59-1.58-1.73-1.68-2.07-1.68s-.43.05-2.83,3.12H64.22V8.35h8.84c.62,0,.76-.19.76-.53s-.14-.62-1.92-2.35C70.56,4.17,70.27,4,69.89,4s-.43.1-3,3.41H64.22V3.84c1.25-.62,1.68-1.06,1.68-1.58S65.47,1.2,58.22.43c.15,2,.24,3.84.24,6.43v.53H55.4c-1,0-2.74,0-5.76-.33l.43,1.63a52.78,52.78,0,0,1,5.33-.34Zm6,21.07a7.63,7.63,0,0,1,3.07,5.38c.29,1.63,1,2.54,2.54,2.54a3,3,0,0,0,3-3.05v-.16c0-2.26-2.5-5.09-8.59-5.33v-.38c.91-.44,1.15-.68,1.2-1.06h7.34c.34,0,.53-.19.53-.58s-.15-.67-1.54-2.06c-1.83-1.82-2.21-2-2.49-2s-.53.14-3.17,3.7H55.11A42,42,0,0,1,49.73,26l.48,1.68a33.58,33.58,0,0,1,4.8-.34H58.8c.1,1.2.1,1.78.1,2.5v1.06c-.57-.48-2.06-1.06-5.52-2.45-.14,1-.38,2.06-.52,2.59a28.32,28.32,0,0,1-4.57,10.46.26.26,0,0,0,.06.36.24.24,0,0,0,.27,0,26.34,26.34,0,0,0,9.27-9.4,3.62,3.62,0,0,0,1-.43v5.47a1.5,1.5,0,0,1-1.25,1.71l-.24,0a28.58,28.58,0,0,1-3.07.19c-.29,0-.38.34-.1.43a5.19,5.19,0,0,1,3.5,3.65c.24,1,.53,1.2,1.15,1.2a7.66,7.66,0,0,0,3.7-.86c1.49-.78,2.12-2.07,2.12-4.28,0-.77-.19-5.38-.19-9.41ZM78.2,11.9h9.5c-.58,2.59-1,4.18-1.64,6.29-.1.29.1.43.34.29,2.26-1.4,3.22-2,4.46-2.74a6.74,6.74,0,0,1,2.6-.91c1.2-.19,1.58-.53,1.58-1.15s-.14-1-2.06-2.88C90.14,8.06,89.9,8,89.42,8s-.57.1-3.07,2.93H78.72a50.75,50.75,0,0,0,3-7.1c1.68-.43,1.82-.72,1.82-1.3S82.56,1.48,75.6,0c-.14,1.92-.24,2.68-.43,4-.77,6.05-2.4,12.62-4.32,16.37,0-.29-.14-.48-1.39-1.68-2-1.92-2.21-2-2.54-2s-.48.1-3,3.36H57.27a42,42,0,0,1-5.38-.38l.48,1.68a36.57,36.57,0,0,1,4.9-.34H70.52c-.24.38-.48.77-.72,1.1s.14.53.38.34a35.7,35.7,0,0,0,7.15-9c0,.86,0,1.58,0,2.45C76.85,35,70.9,41.76,62.84,44.83a.25.25,0,0,0,.14.48c10.61-2.25,18.19-8.69,19.54-24.53l.1-.91v.91a75.84,75.84,0,0,0,1,13.3A22.79,22.79,0,0,0,87.7,44c.39.48.63.63,1,.63s.48-.1,1.16-.92c1.1-1.3,2.92-3.16,5-3.7.29,0,.29-.28,0-.43a24.73,24.73,0,0,1-8-8.64A33.28,33.28,0,0,1,83.1,16.22c1.05-.52,1.39-.91,1.39-1.34,0-.67-.53-1.1-6.67-2.26ZM125.52,1.78c1.25.86,2,2.35,2.3,4.6q.36,3,2.88,3a3.17,3.17,0,0,0,3.22-3.12V6.14c0-2.64-2.5-4.9-8.21-4.9A.3.3,0,0,0,125.52,1.78Zm14.6,9.74c.48,0,.72-.24.72-.62s-.2-.63-1.73-2.12c-2.35-2.25-2.59-2.4-3.07-2.4s-.68,0-3.7,4.18h-8.69c-.19-2-.34-4.08-.39-6.29,1.49-.67,1.78-1,1.78-1.53,0-.82-.48-1.16-7.73-2,.29,1.77.43,3.17.67,6.1.1,1.25.24,2.5.34,3.7H108.1c-.48-.43-2-1-7.1-2a88.06,88.06,0,0,1,.42,11.13c0,16.22-1.53,21.17-4.7,24.86a.22.22,0,0,0,.29.34c5.76-3.74,10-11.62,10-23.42v-.63h5.57a46.55,46.55,0,0,1-1.2,9.7c-.33,1.35-1,2.26-2.16,2.35a19.84,19.84,0,0,1-3.36.1.24.24,0,0,0-.24.24.23.23,0,0,0,.19.24c1.88.53,2.55,1.64,2.93,3.5.19.82.67,1,1.63,1a7.08,7.08,0,0,0,6-4.37c.81-2,1.39-4.51,1.82-11.18,1.2-.87,1.34-1,1.34-1.49s-.19-.63-1.58-1.78c-2.35-1.92-2.54-2-3.07-2s-.58.05-2.74,2.69H107V12.14a4,4,0,0,0,1.06-.62h10.37a64.28,64.28,0,0,0,3.65,16.13,30.8,30.8,0,0,0,1.44,3.21A34.21,34.21,0,0,1,110,43.73c-.24.14,0,.57.29.48,6-1.83,11-4.13,15.84-9A26.92,26.92,0,0,0,132.92,42a7.51,7.51,0,0,0,4.36,1.44,3.11,3.11,0,0,0,3.17-3v-.13a5.52,5.52,0,0,0-.72-2.5,5.64,5.64,0,0,1-.48-2.06A45.19,45.19,0,0,1,141.32,29c.1-.29-.2-.44-.39-.2-3.36,4.42-4.8,6-5.66,6a2.2,2.2,0,0,1-1.39-.53A20.64,20.64,0,0,1,130,30.19a45.36,45.36,0,0,0,5.71-11c1.39-.33,1.82-.67,1.82-1.25s-.43-1-7.2-4.32c-.29,1.49-.57,3-.91,4.28a61.14,61.14,0,0,1-2.35,7.24,48.54,48.54,0,0,1-3.36-13.58ZM158.45,9c.77-.34,1.1-.58,1.1-1.06H167a.53.53,0,0,0,.53-.55v0c0-.39-.24-.67-1.73-2.16-2.16-2.16-2.45-2.35-2.88-2.35s-.53.19-3.36,4.12h-9a39.1,39.1,0,0,1-5.19-.33l.48,1.63a33.66,33.66,0,0,1,4.7-.34h1.73a37.53,37.53,0,0,1,.14,4.37V28.8c-1.53.34-3,.62-4.32.86a24.86,24.86,0,0,1-3.21.48c2.88,6.72,3.36,7.59,4,7.59.43,0,1.15-.34,1.44-2,5-2.64,12.34-7,16.61-9.84.24-.14,0-.58-.29-.48-2.16.58-5.13,1.34-8.21,2ZM176,13.44c.15-2.84.19-6,.19-9.65C177.8,3,178,2.49,178,2.06c0-.72-1.06-1.39-8.11-2,.24,1.25.28,2.6.28,8.45,0,1.78,0,3.41,0,4.95h-3.27a43.79,43.79,0,0,1-5.37-.39l.48,1.68a36.45,36.45,0,0,1,4.9-.33h3.21c-.38,9.7-1.68,14.88-4,19.15-2.69,5-7.35,9.6-11.76,11.47-.29.1,0,.48.29.43a30.51,30.51,0,0,0,15.5-9.89c3.5-4.41,5.23-9.64,5.8-21.16h6c-.1,9.5-.29,15.74-1.2,21.12-.48,2.88-1.59,3.45-3.22,3.55-1,0-3.17.1-6.1,0-.29,0-.29.38,0,.48,3.89,1.44,5.23,2.45,5.76,4.56.24.91.53,1.15,1.3,1.15,4.85,0,7.3-2.3,8.26-7.1.72-3.55,1.1-9.6,1.24-21.74,1.2-1,1.44-1.25,1.44-1.63s-.14-.68-2-2.16c-2.3-1.92-2.55-2-3-2s-.62.14-3.12,2.88Z" transform="translate(0 0)"/></svg>