<svg xmlns="http://www.w3.org/2000/svg" viewBox="0 0 925 179"><defs><style>.cls-1,.cls-2{fill:#730;}.cls-2{font-size:96.45px;font-family:Broadway;}.cls-3{letter-spacing:0.03em;}.cls-4{letter-spacing:-0.01em;}.cls-5{fill:#42210b;}</style></defs><g id="Object"><path class="cls-1" d="M236.12,72.29h-27a75.27,75.27,0,1,0,1.66,32.36h25.29a16.18,16.18,0,1,0,0-32.36Zm0,27.46H206.58l-.29,2.12a70.27,70.27,0,1,1-1.38-26.47l.51,2.08,2.12-.22a10.93,10.93,0,0,1,1.15-.06h27.43a11.28,11.28,0,1,1,0,22.55Z"/><path class="cls-1" d="M137.65,32.65a59.64,59.64,0,1,0,59.63,59.63A59.64,59.64,0,0,0,137.65,32.65Zm-5.3,11.75c1.82.5,3.13,2.77,4.66,4.26h0c1.52-1.49,2.84-3.76,4.66-4.26,2-.57,4.55,4.45,3.24,7.2-2,4.13-4.52,8-7.28,12.61-.17.41-.35.81-.53,1.24a1.74,1.74,0,0,0-.11-.18l-.1.18c-.18-.43-.36-.83-.54-1.24-2.76-4.6-5.31-8.48-7.28-12.61C127.8,48.85,130.35,43.83,132.35,44.4Zm-2.81,14.45,8,12.47c2.39-4.15,5-8.68,8-13.91,4.71,11.2-6.68,15.84-8,24.07C129.88,74,126.22,64.09,129.54,58.85Zm-4.83,10.52,12.52,21.19c3.56-7,7.63-15.13,11.73-23.27,3.73,5.56,3.17,16.25-1.24,20.74-3.29,3.34-6.85,6.41-10.08,9.41-3.76-3.29-7.7-6.6-11.49-10.08C121.29,82.9,120.66,75.33,124.71,69.37Zm3.57,26.14c4.28,3,6.45,7.41,7.25,12.54-2.74-5.91-7-10-13.75-11.55l11.6,12.33c-11.82-5.35-20.11-13.33-20.09-27.35C116,88.75,122.68,91.53,128.28,95.51Zm-23.21-3.79c1.45,2.17,2.54,3.74,3.56,5.35,3.82,6,9.41,9.2,16.27,10.81,7.15,1.69,11.06,6.28,11.72,13.82-2.28-5.76-6.55-7.32-11.06-8.64-4.23-1.23-8.41-2.68-12.9-4.12,2.53,4.78,6.78,6.83,11.45,8.44,2.79,1,5.86,1.74,8.11,3.49s3.63,4.62,4.8,7.55c-3.85-5.84-9.89-7.12-15.9-8.69C107.74,116.26,100.8,104.44,105.07,91.72Zm30.61,51.21c-3.93-2.51-7.63-5.5-11.8-7.5-4.94-2.36-10.45-3.53-15.42-5.83-9.67-4.49-15.35-16.15-12.62-26.44a7.75,7.75,0,0,1,1.2-2.63c2.37,12.72,11.21,17.79,22.37,20.39,5.91,1.38,11.28,4,15.11,9a9.07,9.07,0,0,1,1.87,5.56,15.81,15.81,0,0,0-2.74-2.85c-3.87-2.38-7.36-6.08-11.82-6.77a42.6,42.6,0,0,1-17.43-7.27c1.91,3.27,2,3.86,6.08,7.75,3.28,3.17,7,2.84,11.44,4.15,6.46,1.93,12.49,4.24,15.12,11.26.19.51.87.83.92,2.14A13.09,13.09,0,0,1,135.68,142.93Zm8.78-48.34c5.15-5,11.6-9,13.24-16.9,2.27,14.48-5,24-16.39,31.48l10-14.6c-6.75,2.63-10.47,7.59-12.36,14.13C139,103.27,140.52,98.42,144.46,94.59Zm6.1,15.37c-6.52,1.86-6,2.69-9.78,8l-.29-.12a31.81,31.81,0,0,1,4.19-6.94c2.61-3,6.33-4.91,9.33-7.57,4.69-4.15,9.19-8.51,13.56-12.59,2.41,4.8.84,14.28-4.92,19.38-4.26,3.79-9.52,6.47-14.39,9.56-2.72,1.73-5.49,3.33-8.18,4.92a6.2,6.2,0,0,1,1.23-3.24c2.84-2.87,4.46-6.09,7.51-7.35,3.35-1.4,7.23-5.08,9.76-7.67C158.25,106,154.22,108.72,150.56,110Zm29,3c-1.7,7.25-6.75,11.86-13.06,15.07a105.17,105.17,0,0,1-12,4.73c-4.27,1.54-8.6,2.9-14,4.71,8.08-8.71,21.06-7.2,28-16.4l-28.07,11.67c.71-2.94,3.26-5.4,6.61-7.07,4.27-2.13,8.69-4,13-6.06,8.71-4.25,14.78-10.52,15.49-22C180.26,102.76,180.81,107.71,179.57,113Z"/><text class="cls-2" transform="translate(294.55 122.19) scale(0.83 1)">Co<tspan class="cls-3" x="125.88" y="0">f</tspan><tspan class="cls-4" x="166.2" y="0">f</tspan><tspan x="202.55" y="0">ee Cup</tspan></text><path class="cls-5" d="M868.19,41.91a35.74,35.74,0,0,1-5.5,3.22c-2.06,1-4.27,2-6.59,3.09-4.57,2.17-9.69,4.66-14.21,8.84a27.47,27.47,0,0,0-8.55,16.07,33.13,33.13,0,0,0,1.93,16.78,36.52,36.52,0,0,0,8.66,13.26c-2.91-9.85-3.76-19.86-.95-27.75a19.91,19.91,0,0,1,6.76-9.34c3.12-2.43,7.18-4.38,11.7-6.45,8.66-3.86,21.2-10.48,23.8-24.06A17.44,17.44,0,0,0,884,25.72a22,22,0,0,0-5.29-7.11c-4.06-3.68-8.15-6.08-11.67-9.94,1,5.22,4.65,9.64,6.86,13.78,2.43,4.19,3,7.81,1.7,10.9S871.6,39.5,868.19,41.91Z"/><path class="cls-5" d="M819.41,88.79c-2.43-6.51-3.62-13.22-2.62-19.38a20.82,20.82,0,0,1,9.63-14.51c5.33-3.33,12.08-6.11,17.64-10.86,2.77-2.35,5.48-5.34,6.52-9.23a11.62,11.62,0,0,0-2.9-10.37c1.14,3.32,1.41,6.72,0,9.34s-3.88,4.59-6.54,6.33c-5.5,3.47-11.71,5.7-18.12,9.49a25.82,25.82,0,0,0-8,8.32,23.25,23.25,0,0,0-3.08,11A28.71,28.71,0,0,0,819.41,88.79Z"/><path class="cls-5" d="M866.07,71.1a21,21,0,0,0-6,8.29,22.44,22.44,0,0,0-1.46,9.85,27.47,27.47,0,0,0,7.46,16.9,42.39,42.39,0,0,1-2.54-16.88,19.11,19.11,0,0,1,6.6-13.36c3.87-3.25,9.48-5.48,14.71-8.81A25.21,25.21,0,0,0,892,60.72a13.78,13.78,0,0,0,2.57-9c-2.12,5.91-6.83,8.85-12,11.06S871.43,66.72,866.07,71.1Z"/></g></svg>