<svg xmlns="http://www.w3.org/2000/svg" viewBox="0 0 175 175"><defs><style>.cls-1{fill:#ffede1;}</style></defs><g id="Object"><path class="cls-1" d="M158.45,70.26H134.54A66.74,66.74,0,1,0,136,99h22.43a14.35,14.35,0,1,0,0-28.7Zm0,24.35h-26.2L132,96.49A62.33,62.33,0,1,1,130.76,73l.46,1.84,1.88-.19a8.6,8.6,0,0,1,1,0h24.33a10,10,0,1,1,0,20Z"/><path class="cls-1" d="M71.12,35.11A52.89,52.89,0,1,0,124,88,52.88,52.88,0,0,0,71.12,35.11Zm-4.7,10.41C68,46,69.2,48,70.55,49.3h0C71.93,48,73.1,46,74.71,45.52c1.78-.49,4,4,2.88,6.39-1.74,3.66-4,7.11-6.46,11.19l-.47,1.1L70.57,64a.86.86,0,0,0-.1.16L70,63.1c-2.45-4.08-4.72-7.53-6.46-11.19C62.38,49.48,64.64,45,66.42,45.52ZM63.93,58.34,71.05,69.4l7.12-12.34c4.17,9.93-5.93,14-7.13,21.35C64.23,71.78,61,63,63.93,58.34Zm-4.28,9.33c3.92,6.65,7.78,13.18,11.1,18.8l10.4-20.64c3.31,4.93,2.81,14.41-1.1,18.39-2.91,3-6.07,5.69-8.94,8.35-3.33-2.92-6.83-5.86-10.19-8.95C56.61,79.67,56.05,73,59.65,67.67Zm3.16,23.19c3.8,2.7,5.72,6.56,6.43,11.12-2.43-5.24-6.19-8.91-12.19-10.25l10.29,10.94C56.85,97.92,49.5,90.84,49.52,78.41,51.92,84.86,57.84,87.33,62.81,90.86ZM42.23,87.49c1.28,1.93,2.25,3.32,3.16,4.75,3.39,5.34,8.34,8.15,14.42,9.59,6.34,1.49,9.81,5.56,10.39,12.25-2-5.11-5.8-6.49-9.8-7.66-3.75-1.1-7.46-2.38-11.44-3.66,2.24,4.24,6,6.06,10.15,7.48,2.48.86,5.2,1.55,7.19,3.11s3.23,4.09,4.27,6.68c-3.42-5.17-8.78-6.31-14.11-7.69C44.6,109.25,38.44,98.77,42.23,87.49Zm27.15,45.42c-3.5-2.23-6.77-4.88-10.47-6.65-4.38-2.1-9.26-3.13-13.67-5.18-8.58-4-13.62-14.32-11.19-23.44a6.52,6.52,0,0,1,1.06-2.33c2.1,11.28,9.94,15.77,19.83,18.08,5.25,1.22,10,3.54,13.4,8A8,8,0,0,1,70,126.26a13.87,13.87,0,0,0-2.43-2.52c-3.43-2.12-6.52-5.4-10.48-6a37.79,37.79,0,0,1-15.45-6.45A22,22,0,0,0,47,118.16c2.92,2.81,6.24,2.52,10.15,3.68,5.73,1.71,11.08,3.76,13.41,10,.17.45.77.73.81,1.9A12.27,12.27,0,0,1,69.38,132.91ZM77.16,90c4.56-4.45,10.29-8,11.74-15,2,12.84-4.46,21.33-14.53,27.92l8.88-13c-6,2.34-9.29,6.73-11,12.53C72.29,97.74,73.67,93.44,77.16,90Zm5.41,13.63c-5.78,1.65-5.33,2.38-8.68,7.08a1.36,1.36,0,0,0-.25-.11,28.5,28.5,0,0,1,3.71-6.15c2.32-2.63,5.62-4.36,8.28-6.72,4.16-3.68,8.15-7.55,12-11.17,2.14,4.27.74,12.67-4.36,17.19-3.78,3.36-8.44,5.74-12.76,8.48-2.41,1.53-4.87,3-7.25,4.36a5.39,5.39,0,0,1,1.09-2.87c2.51-2.55,4-5.4,6.66-6.52,3-1.24,6.41-4.5,8.65-6.8C89.39,100.18,85.82,102.57,82.57,103.67Zm25.73,2.68c-1.52,6.43-6,10.52-11.59,13.37A91.92,91.92,0,0,1,86,123.91c-3.79,1.37-7.63,2.58-12.45,4.18,7.16-7.73,18.67-6.39,24.88-14.54l-24.9,10.34c.63-2.6,2.89-4.78,5.86-6.26,3.79-1.89,7.7-3.52,11.51-5.38,7.71-3.76,13.1-9.33,13.73-19.54C108.91,97.28,109.4,101.68,108.3,106.35Z"/></g></svg>